<svg width="24" height="24" viewBox="0 0 24 24" fill="none" xmlns="http://www.w3.org/2000/svg">
<rect width="24" height="24" rx="12" fill="url(#paint0_linear_3748_16629)"/>
<path d="M11.9987 5.3335C15.6806 5.3335 18.6654 8.31826 18.6654 12.0002C18.6654 15.682 15.6806 18.6668 11.9987 18.6668C8.3168 18.6668 5.33203 15.682 5.33203 12.0002C5.33203 8.31826 8.3168 5.3335 11.9987 5.3335ZM11.9987 6.3335C8.86908 6.3335 6.33203 8.87055 6.33203 12.0002C6.33203 15.1298 8.86908 17.6668 11.9987 17.6668C15.1283 17.6668 17.6654 15.1298 17.6654 12.0002C17.6654 8.87055 15.1283 6.3335 11.9987 6.3335ZM11.1654 12.9597L14.1452 9.97994C14.3404 9.78468 14.657 9.78468 14.8522 9.97994C15.0298 10.1575 15.0459 10.4352 14.9006 10.631L14.8522 10.687L11.5189 14.0204C11.3414 14.1979 11.0636 14.214 10.8679 14.0688L10.8118 14.0204L9.14514 12.3537C8.94988 12.1584 8.94988 11.8419 9.14514 11.6466C9.32266 11.4691 9.60043 11.453 9.79617 11.5982L9.85225 11.6466L11.1654 12.9597Z" fill="white"/>
<defs>
<linearGradient id="paint0_linear_3748_16629" x1="0.047244" y1="7.41552e-08" x2="20.8233" y2="26.5252" gradientUnits="userSpaceOnUse">
<stop stop-color="#5297F2"/>
<stop offset="1" stop-color="#0F55DD"/>
</linearGradient>
</defs>
</svg>
