<svg width="27" height="29" viewBox="0 0 27 29" fill="none" xmlns="http://www.w3.org/2000/svg">
<g id="white-instagram.58aca1df.svg">
<path id="Vector" d="M19.125 3.64062H7.875C4.7684 3.64062 2.25 6.15902 2.25 9.26562V20.5157C2.25 23.6223 4.7684 26.1407 7.875 26.1407H19.125C22.2316 26.1407 24.75 23.6223 24.75 20.5157V9.26562C24.75 6.15902 22.2316 3.64062 19.125 3.64062Z" stroke="white" stroke-width="2" stroke-linecap="round" stroke-linejoin="round"/>
<path id="Vector_2" d="M17.9983 14.1837C18.1371 15.12 17.9772 16.0762 17.5412 16.9163C17.1053 17.7565 16.4154 18.4378 15.57 18.8633C14.7245 19.2889 13.7665 19.437 12.832 19.2866C11.8975 19.1362 11.0342 18.695 10.365 18.0258C9.69562 17.3565 9.25441 16.4932 9.10403 15.5587C8.95366 14.6242 9.10178 13.6661 9.52733 12.8206C9.95287 11.9752 10.6342 11.2854 11.4744 10.8495C12.3145 10.4135 13.2707 10.2536 14.207 10.3924C15.162 10.5341 16.0462 10.9791 16.7289 11.6618C17.4116 12.3445 17.8566 13.2287 17.9983 14.1837Z" stroke="white" stroke-width="2" stroke-linecap="round" stroke-linejoin="round"/>
<path id="Vector_3" d="M19.6875 8.70312H19.6987" stroke="white" stroke-width="2" stroke-linecap="round" stroke-linejoin="round"/>
</g>
</svg>
