<svg width="27" height="23" viewBox="0 0 27 23" fill="none" xmlns="http://www.w3.org/2000/svg">
<path id="Vector" d="M25.875 1.76521C24.7977 2.52512 23.6049 3.10634 22.3425 3.48646C21.665 2.70741 20.7645 2.15524 19.7629 1.90463C18.7613 1.65402 17.7069 1.71706 16.7423 2.08522C15.7777 2.45339 14.9495 3.10891 14.3696 3.96314C13.7897 4.81737 13.4862 5.8291 13.5 6.86146V7.98651C11.523 8.03771 9.56393 7.59921 7.79738 6.71009C6.03084 5.82093 4.51161 4.50868 3.375 2.89021C3.375 2.89021 -1.125 13.0152 9 17.5152C6.68309 19.0879 3.92305 19.8765 1.125 19.7652C11.25 25.3902 23.625 19.7652 23.625 6.82772C23.624 6.51436 23.5938 6.20177 23.535 5.89397C24.6832 4.76165 25.4934 3.33201 25.875 1.76521Z" stroke="white" stroke-width="2" stroke-linecap="round" stroke-linejoin="round"/>
</svg>
