<svg width="27" height="29" viewBox="0 0 27 29" fill="none" xmlns="http://www.w3.org/2000/svg">
<g id="white-youtube.23e4267e.svg">
<path id="Vector" d="M25.3582 8.61312C25.2245 8.07921 24.9524 7.59002 24.5691 7.19496C24.1859 6.79989 23.7053 6.51296 23.1757 6.36312C21.2407 5.89062 13.5007 5.89063 13.5007 5.89063C13.5007 5.89063 5.76064 5.89062 3.82564 6.40812C3.29604 6.55796 2.81536 6.84489 2.43215 7.23996C2.04894 7.63502 1.77677 8.12421 1.64314 8.65812C1.289 10.6219 1.11578 12.614 1.12564 14.6094C1.11301 16.6198 1.28625 18.6271 1.64314 20.6056C1.79047 21.123 2.06873 21.5936 2.45105 21.9719C2.83337 22.3503 3.30681 22.6237 3.82564 22.7656C5.76064 23.2831 13.5007 23.2831 13.5007 23.2831C13.5007 23.2831 21.2407 23.2831 23.1757 22.7656C23.7053 22.6158 24.1859 22.3289 24.5691 21.9338C24.9524 21.5387 25.2245 21.0496 25.3582 20.5156C25.7096 18.5667 25.8828 16.5898 25.8757 14.6094C25.8883 12.599 25.7151 10.5917 25.3582 8.61312Z" stroke="white" stroke-width="2" stroke-linecap="round" stroke-linejoin="round"/>
<path id="Vector_2" d="M10.9688 18.2872L17.4375 14.6084L10.9688 10.9297V18.2872Z" stroke="white" stroke-width="2" stroke-linecap="round" stroke-linejoin="round"/>
</g>
</svg>
