<svg width="172" height="36" viewBox="0 0 172 36" fill="none" xmlns="http://www.w3.org/2000/svg">
<g id="favicon-white.e1456223.svg" clip-path="url(#clip0_2258_10664)">
<g id="Clip path group">
<mask id="mask0_2258_10664" style="mask-type:luminance" maskUnits="userSpaceOnUse" x="0" y="0" width="172" height="36">
<g id="clip0_4227_10404">
<path id="Vector" d="M171.3 0.839844H0V35.2798H171.3V0.839844Z" fill="white"/>
</g>
</mask>
<g mask="url(#mask0_2258_10664)">
<g id="Group">
<path id="Vector_2" d="M29.1196 21.3079C27.2496 21.3079 25.3696 21.3079 23.4896 21.3079C23.3783 21.296 23.266 21.3184 23.1677 21.372C23.0694 21.4256 22.9898 21.5079 22.9396 21.6079C22.3303 22.5876 21.4773 23.3925 20.464 23.944C19.4507 24.4954 18.3116 24.7746 17.1581 24.7543C16.0046 24.734 14.8761 24.4148 13.8828 23.828C12.8896 23.2412 12.0655 22.4067 11.4911 21.4062C10.9167 20.4057 10.6116 19.2733 10.6057 18.1196C10.5998 16.966 10.8932 15.8305 11.4573 14.8241C12.0213 13.8178 12.8368 12.9749 13.824 12.3779C14.8112 11.7809 15.9363 11.4501 17.0896 11.4179C18.2821 11.3689 19.465 11.6501 20.5079 12.2306C21.5508 12.8112 22.413 13.6685 22.9996 14.7079C23.0418 14.7963 23.1086 14.8706 23.1919 14.9221C23.2753 14.9735 23.3717 14.9998 23.4696 14.9979C24.7196 14.9979 25.9796 14.9979 27.2296 15.0679C27.6396 15.0679 27.6396 14.9379 27.5196 14.6279C26.8951 12.6603 25.7117 10.9168 24.1137 9.61005C22.5157 8.30321 20.572 7.48947 18.5196 7.268C15.7484 7.0647 13.0041 7.92742 10.8478 9.67983C8.6914 11.4322 7.28569 13.942 6.91796 16.6962C6.55022 19.4504 7.24821 22.2411 8.86929 24.4978C10.4904 26.7546 12.9121 28.3071 15.6396 28.8379C17.268 29.0927 18.9333 28.967 20.5051 28.4709C22.0769 27.9747 23.5125 27.1214 24.6996 25.9779C25.3031 25.3947 26.1127 25.0738 26.9519 25.085C27.7911 25.0962 28.5919 25.4388 29.1796 26.0379C29.4721 26.34 29.7013 26.6975 29.8535 27.0895C30.0057 27.4815 30.0778 27.9 30.0657 28.3204C30.0536 28.7407 29.9574 29.1543 29.7829 29.5369C29.6084 29.9195 29.3591 30.2633 29.0496 30.5479C26.5182 33.0199 23.2565 34.6087 19.7496 35.0779C17.0153 35.5143 14.2156 35.2689 11.5989 34.3636C8.98219 33.4582 6.62948 31.9208 4.74957 29.8879C2.16017 27.2219 0.540364 23.7639 0.14957 20.0679C-0.259149 16.5346 0.433071 12.9613 2.13164 9.83627C3.83022 6.71118 6.45229 4.18678 9.63957 2.608C12.3392 1.24884 15.3537 0.63766 18.3696 0.837993C22.0828 1.10965 25.6093 2.57197 28.4252 5.0077C31.241 7.44343 33.196 10.7225 33.9996 14.3579C34.3753 15.7992 34.4938 17.2955 34.3496 18.7779C34.2388 19.5137 33.8663 20.1848 33.3005 20.6679C32.7347 21.1511 32.0136 21.4138 31.2696 21.4079H29.1196V21.3079Z" fill="white"/>
<path id="Vector_3" d="M109.71 18.1992C109.36 19.4293 109 20.6592 108.65 21.8892L107.34 26.5592C107.207 27.0088 106.934 27.4044 106.562 27.689C106.189 27.9735 105.736 28.1323 105.267 28.1423C104.799 28.1523 104.339 28.0131 103.955 27.7447C103.571 27.4763 103.282 27.0927 103.13 26.6492C101.65 22.2226 100.173 17.7893 98.6996 13.3492C98.6037 13.0614 98.5465 12.7621 98.5296 12.4592C98.4645 12.0408 98.5465 11.6128 98.7617 11.2481C98.9769 10.8834 99.3118 10.6046 99.7096 10.4592C100.189 10.2956 100.71 10.3061 101.182 10.4891C101.654 10.672 102.046 11.0155 102.29 11.4592C102.671 12.2542 102.972 13.0849 103.19 13.9392C103.86 15.9993 104.51 18.0593 105.19 20.1193L105.29 20.2893C105.53 19.5193 105.75 18.8092 105.96 18.0992C106.553 16.0992 107.146 14.0792 107.74 12.0392C107.865 11.5578 108.15 11.1329 108.547 10.8334C108.945 10.5338 109.432 10.3772 109.929 10.3887C110.427 10.4003 110.906 10.5794 111.289 10.8971C111.672 11.2148 111.936 11.6525 112.04 12.1392C112.706 14.7592 113.373 17.3726 114.04 19.9792C114.04 20.0892 114.1 20.1992 114.17 20.3992C114.43 19.5892 114.67 18.8692 114.9 18.1492C115.54 16.1492 116.17 14.1492 116.82 12.1492C116.934 11.6274 117.232 11.1642 117.66 10.8446C118.088 10.525 118.617 10.3705 119.15 10.4092C119.435 10.422 119.713 10.501 119.963 10.6399C120.212 10.7787 120.426 10.9738 120.587 11.2095C120.748 11.4453 120.852 11.7152 120.89 11.9981C120.929 12.2809 120.901 12.5689 120.81 12.8392C120.55 13.8392 120.17 14.8992 119.81 15.9292C118.62 19.4992 117.44 23.0692 116.24 26.6392C116.13 27.001 115.929 27.3284 115.656 27.5895C115.382 27.8505 115.046 28.0364 114.68 28.129C114.313 28.2216 113.929 28.2178 113.565 28.118C113.2 28.0181 112.868 27.8257 112.6 27.5592C112.348 27.3158 112.168 27.008 112.08 26.6693C111.36 24.0026 110.636 21.3359 109.91 18.6692C109.91 18.5292 109.83 18.3992 109.79 18.2592L109.71 18.1992Z" fill="white"/>
<path id="Vector_4" d="M72.0888 11.977V5.52695C72.072 5.16899 72.1433 4.81238 72.2965 4.48841C72.4496 4.16443 72.68 3.88298 72.9672 3.66876C73.2545 3.45454 73.59 3.31409 73.9442 3.25972C74.2984 3.20536 74.6605 3.23874 74.9988 3.35695C75.4389 3.48854 75.822 3.76411 76.0868 4.13947C76.3515 4.51483 76.4825 4.96823 76.4588 5.42695V19.427C76.4003 21.4976 75.6293 23.4847 74.2759 25.053C72.9225 26.6212 71.0695 27.6745 69.0297 28.0353C66.9898 28.396 64.888 28.042 63.0788 27.0331C61.2697 26.0241 59.8639 24.422 59.0988 22.497C58.4069 20.6202 58.3244 18.573 58.863 16.6467C59.4016 14.7203 60.5339 13.0128 62.0988 11.767C63.4895 10.7622 65.1573 10.2131 66.8729 10.1952C68.5885 10.1773 70.2675 10.6915 71.6788 11.667L72.0888 11.977ZM62.7988 19.227C62.7919 19.5626 62.8221 19.898 62.8888 20.227C63.009 21.1228 63.3911 21.9632 63.987 22.6428C64.583 23.3223 65.3663 23.8108 66.2388 24.047C67.0808 24.3209 67.986 24.3338 68.8355 24.0839C69.6851 23.8341 70.4391 23.3332 70.9988 22.647C71.4704 22.0781 71.8173 21.4165 72.0171 20.7051C72.217 19.9937 72.2652 19.2482 72.1588 18.517C72.1045 17.8459 71.9061 17.1944 71.5771 16.607C71.248 16.0196 70.7961 15.5101 70.2522 15.1133C69.7082 14.7165 69.0851 14.4417 68.4252 14.3077C67.7654 14.1738 67.0844 14.1837 66.4288 14.337C65.358 14.6181 64.415 15.2557 63.7551 16.1446C63.0953 17.0335 62.758 18.1207 62.7988 19.227Z" fill="white"/>
<path id="Vector_5" d="M50.2389 20.958C48.5189 20.958 46.7989 20.958 45.0789 20.958C44.7389 20.958 44.6589 21.008 44.7989 21.358C45.1823 22.2369 45.8104 22.9871 46.6082 23.519C47.4061 24.0509 48.3401 24.3421 49.2989 24.358C50.5644 24.4002 51.8085 24.0241 52.8389 23.288C53.2533 22.9769 53.7665 22.8266 54.2833 22.8653C54.8001 22.9039 55.2853 23.1287 55.6489 23.498C55.8529 23.674 56.0141 23.8942 56.1202 24.1418C56.2262 24.3895 56.2743 24.6582 56.2608 24.9272C56.2473 25.1963 56.1726 25.4588 56.0422 25.6946C55.9119 25.9304 55.7295 26.1334 55.5089 26.288C54.2703 27.2532 52.8025 27.8803 51.2489 28.108C49.7853 28.4086 48.2708 28.351 46.8343 27.9401C45.3979 27.5292 44.082 26.7771 42.9989 25.748C41.4239 24.2616 40.4881 22.2214 40.3889 20.058C40.1706 17.9275 40.6856 15.7863 41.8489 13.988C42.5638 12.8774 43.5362 11.9557 44.6835 11.3011C45.8307 10.6465 47.119 10.2784 48.4389 10.228C50.2341 10.0327 52.0437 10.4333 53.5889 11.368C54.5875 12.0135 55.4297 12.8735 56.0542 13.8855C56.6787 14.8975 57.0697 16.0359 57.1989 17.218C57.3279 17.8527 57.3683 18.5022 57.3189 19.148C57.2879 19.6511 57.0613 20.1222 56.6876 20.4604C56.3138 20.7987 55.8226 20.9773 55.3189 20.958H50.2389ZM48.9289 17.238H52.6489C53.1689 17.238 53.1689 17.238 52.9889 16.728C52.7466 15.9665 52.2679 15.3019 51.6224 14.8308C50.9769 14.3597 50.198 14.1065 49.3989 14.108C48.4513 14.0111 47.4979 14.225 46.6825 14.7175C45.8672 15.2099 45.2341 15.9542 44.8789 16.838C44.6989 17.268 44.7089 17.288 45.1689 17.288L48.9289 17.238Z" fill="white"/>
<path id="Vector_6" d="M161.539 16.1274L162.929 14.9074L167.739 10.6074C167.942 10.4231 168.179 10.2823 168.438 10.1936C168.697 10.1049 168.971 10.0702 169.244 10.0918C169.517 10.1133 169.782 10.1906 170.024 10.3189C170.266 10.4472 170.479 10.6236 170.649 10.8374C170.829 11.0405 170.966 11.2782 171.051 11.5358C171.136 11.7935 171.168 12.0658 171.145 12.3361C171.122 12.6065 171.043 12.8693 170.915 13.1084C170.787 13.3476 170.612 13.5582 170.399 13.7274C168.789 15.1374 167.209 16.5674 165.599 17.9774C165.359 18.1874 165.449 18.3174 165.599 18.4974C167.319 20.5974 169.029 22.7074 170.759 24.8074C171.006 25.0784 171.178 25.4092 171.257 25.7671C171.336 26.1249 171.32 26.4972 171.211 26.847C171.102 27.1969 170.903 27.5121 170.634 27.7612C170.366 28.0104 170.036 28.1849 169.679 28.2674C169.313 28.391 168.917 28.3977 168.546 28.2867C168.175 28.1756 167.848 27.9523 167.609 27.6474C165.903 25.5474 164.196 23.4374 162.489 21.3174C162.289 21.0574 162.179 21.0474 161.929 21.2574C161.78 21.3769 161.661 21.5295 161.581 21.7031C161.501 21.8767 161.463 22.0665 161.469 22.2574C161.54 23.5898 161.54 24.925 161.469 26.2574C161.452 26.5249 161.381 26.7861 161.26 27.0255C161.14 27.265 160.973 27.4778 160.768 27.6513C160.564 27.8248 160.327 27.9555 160.071 28.0355C159.815 28.1156 159.546 28.1435 159.279 28.1174C159.009 28.1177 158.741 28.0631 158.493 27.9571C158.244 27.851 158.019 27.6955 157.832 27.5002C157.645 27.3048 157.5 27.0736 157.405 26.8205C157.31 26.5673 157.267 26.2976 157.279 26.0274V5.34739C157.26 4.8235 157.448 4.31304 157.801 3.9259C158.155 3.53876 158.646 3.30588 159.169 3.27739C159.449 3.22732 159.736 3.23742 160.012 3.30704C160.287 3.37665 160.545 3.50418 160.767 3.68111C160.989 3.85805 161.172 4.08034 161.301 4.33317C161.431 4.58601 161.505 4.86358 161.519 5.14739C161.555 5.81359 161.555 6.48119 161.519 7.14739C161.519 10.1474 161.519 13.0674 161.519 16.0274C161.469 16.0374 161.499 16.0574 161.539 16.1274Z" fill="white"/>
<path id="Vector_7" d="M130.28 28.2587C129.086 28.3067 127.894 28.1066 126.78 27.6713C125.667 27.236 124.655 26.5747 123.81 25.7292C122.964 24.8838 122.303 23.8724 121.868 22.7588C121.433 21.6452 121.232 20.4535 121.28 19.2587C121.314 16.8718 122.294 14.5958 124.005 12.9314C125.716 11.267 128.018 10.3506 130.405 10.3837C132.792 10.4169 135.068 11.3969 136.733 13.1082C138.397 14.8194 139.314 17.1218 139.28 19.5087C139.291 20.6819 139.063 21.845 138.611 22.9277C138.159 24.0105 137.493 24.9903 136.651 25.8082C135.81 26.626 134.812 27.2648 133.717 27.686C132.622 28.1072 131.453 28.302 130.28 28.2587ZM134.99 19.2587C135.001 18.6643 134.91 18.0724 134.72 17.5087C134.446 16.6581 133.933 15.904 133.243 15.3362C132.553 14.7683 131.714 14.4105 130.826 14.3052C129.938 14.1999 129.039 14.3515 128.235 14.7421C127.431 15.1328 126.756 15.7459 126.29 16.5087C125.64 17.6291 125.407 18.9429 125.63 20.2187C125.725 20.958 125.994 21.6641 126.416 22.2786C126.838 22.893 127.4 23.3981 128.056 23.7519C128.712 24.1058 129.442 24.2983 130.188 24.3133C130.933 24.3284 131.671 24.1657 132.34 23.8387C133.187 23.4191 133.892 22.7587 134.365 21.9404C134.838 21.1221 135.059 20.1822 135 19.2387L134.99 19.2587Z" fill="white"/>
<path id="Vector_8" d="M97.1012 19.2371C97.1012 21.4271 97.1012 23.6271 97.1012 25.8171C97.1287 26.1655 97.0717 26.5154 96.9349 26.8371C96.7981 27.1587 96.5857 27.4425 96.3157 27.6644C96.0457 27.8863 95.7262 28.0397 95.3841 28.1116C95.0421 28.1834 94.6877 28.1716 94.3512 28.0771C94.0868 28.0283 93.8359 27.9237 93.6152 27.7702C93.3944 27.6168 93.209 27.418 93.0712 27.1871C92.9012 26.9071 92.7912 26.9371 92.5512 27.0871C91.0451 27.9915 89.2943 28.4035 87.543 28.2654C85.7916 28.1274 84.127 27.4463 82.7812 26.3171C81.9893 25.5711 81.3617 24.6683 80.9382 23.6663C80.5146 22.6642 80.3044 21.5849 80.3212 20.4971C80.3212 17.8271 80.3212 15.1571 80.3212 12.4971C80.3587 11.9432 80.6053 11.4241 81.0109 11.045C81.4166 10.6659 81.9511 10.455 82.5063 10.455C83.0615 10.455 83.596 10.6659 84.0016 11.045C84.4073 11.4241 84.6537 11.9432 84.6912 12.4971C84.6912 14.9371 84.6912 17.3771 84.6912 19.8171C84.6877 20.3073 84.7346 20.7965 84.8312 21.2771C84.9243 21.8981 85.1932 22.4795 85.6061 22.9526C86.019 23.4257 86.5585 23.7708 87.1613 23.9471C87.9472 24.2572 88.805 24.3381 89.635 24.1806C90.4651 24.0231 91.2335 23.6335 91.8512 23.0571C92.138 22.7897 92.3641 22.4639 92.5142 22.1016C92.6643 21.7393 92.7349 21.349 92.7212 20.9571V12.5871C92.6978 12.2101 92.7724 11.8335 92.9376 11.4938C93.1028 11.1542 93.3531 10.863 93.6641 10.6486C93.9751 10.4343 94.3363 10.304 94.7125 10.2704C95.0888 10.2369 95.4673 10.3012 95.8113 10.4571C96.2358 10.6341 96.5927 10.9419 96.8301 11.3358C97.0675 11.7297 97.173 12.1891 97.1313 12.6471L97.1012 19.2371Z" fill="white"/>
<path id="Vector_9" d="M142.527 19.2476V12.4876C142.485 12.1058 142.558 11.7202 142.736 11.3799C142.914 11.0397 143.19 10.7603 143.527 10.5776C143.914 10.3769 144.348 10.2822 144.783 10.3033C145.219 10.3244 145.641 10.4604 146.007 10.6976C146.261 10.8415 146.458 11.0671 146.567 11.3376C146.667 11.6276 146.787 11.5876 146.997 11.4376C147.864 10.8424 148.845 10.4345 149.878 10.2399C150.911 10.0454 151.974 10.0684 152.997 10.3076C153.783 10.4171 154.498 10.821 154.997 11.4376C155.221 11.7175 155.354 12.0594 155.377 12.4171C155.4 12.7748 155.313 13.131 155.127 13.4376C155.005 13.7447 154.79 14.0061 154.512 14.1853C154.234 14.3645 153.908 14.4527 153.577 14.4376C152.877 14.4376 152.177 14.2576 151.467 14.2176C150.195 14.0475 148.906 14.3734 147.867 15.1276C147.552 15.3559 147.297 15.657 147.122 16.0051C146.948 16.3533 146.861 16.7383 146.867 17.1276V25.7476C146.875 26.053 146.849 26.3583 146.787 26.6576C146.72 27.0066 146.553 27.3287 146.307 27.5844C146.06 27.8401 145.744 28.0184 145.397 28.0976C144.919 28.2276 144.415 28.2276 143.937 28.0976C143.507 27.98 143.132 27.7157 142.876 27.3504C142.62 26.9852 142.501 26.5419 142.537 26.0976C142.517 23.7776 142.527 21.5076 142.527 19.2476Z" fill="white"/>
</g>
</g>
</g>
</g>
<defs>
<clipPath id="clip0_2258_10664">
<rect width="172" height="36" fill="white"/>
</clipPath>
</defs>
</svg>
