<svg width="25" height="25" viewBox="0 0 25 25" fill="none" xmlns="http://www.w3.org/2000/svg">
<path opacity="0.4" d="M10.9954 15.9634H4.41988C3.58766 15.9634 2.91211 16.6271 2.91211 17.4447C2.91211 18.2612 3.58766 18.926 4.41988 18.926H10.9954C11.8276 18.926 12.5032 18.2612 12.5032 17.4447C12.5032 16.6271 11.8276 15.9634 10.9954 15.9634Z" fill="#ffffff"/>
<path opacity="0.4" d="M22.9122 6.38404C22.9122 5.56751 22.2367 4.90381 21.4056 4.90381H14.83C13.9978 4.90381 13.3223 5.56751 13.3223 6.38404C13.3223 7.20167 13.9978 7.86537 14.83 7.86537H21.4056C22.2367 7.86537 22.9122 7.20167 22.9122 6.38404Z" fill="#ffffff"/>
<path d="M9.78985 6.38393C9.78985 8.2506 8.25097 9.76358 6.35098 9.76358C4.4521 9.76358 2.91211 8.2506 2.91211 6.38393C2.91211 4.51835 4.4521 3.00537 6.35098 3.00537C8.25097 3.00537 9.78985 4.51835 9.78985 6.38393Z" fill="#ffffff"/>
<path d="M22.9119 17.4046C22.9119 19.2701 21.373 20.7831 19.4731 20.7831C17.5742 20.7831 16.0342 19.2701 16.0342 17.4046C16.0342 15.5379 17.5742 14.0249 19.4731 14.0249C21.373 14.0249 22.9119 15.5379 22.9119 17.4046Z" fill="#ffffff"/>
</svg>
